<svg xmlns="http://www.w3.org/2000/svg" viewBox="0 0 1400 1400" width="1400" height="1400" preserveAspectRatio="xMidYMid slice"><defs>
<linearGradient id="wood" x1="0" y1="0" x2="0" y2="1"><stop offset="0" stop-color="#5a3418"/><stop offset="1" stop-color="#2b170b"/></linearGradient>
<linearGradient id="wood2" x1="0" y1="0" x2="1" y2="1"><stop offset="0" stop-color="#7a4a24"/><stop offset="1" stop-color="#3d2210"/></linearGradient>
<radialGradient id="glow" cx=".5" cy=".4" r=".7"><stop offset="0" stop-color="#ffb347" stop-opacity=".55"/><stop offset="1" stop-color="#ffb347" stop-opacity="0"/></radialGradient>
<radialGradient id="vig" cx=".5" cy=".5" r=".75"><stop offset=".55" stop-color="#000" stop-opacity="0"/><stop offset="1" stop-color="#000" stop-opacity=".6"/></radialGradient>
<radialGradient id="broth" cx=".4" cy=".35" r=".8"><stop offset="0" stop-color="#ffe27a"/><stop offset=".6" stop-color="#f2b81c"/><stop offset="1" stop-color="#c98a0a"/></radialGradient>
<linearGradient id="ceramic" x1="0" y1="0" x2="1" y2="1"><stop offset="0" stop-color="#fffaf0"/><stop offset="1" stop-color="#d9c9a8"/></linearGradient>
<linearGradient id="tea" x1="0" y1="0" x2="0" y2="1"><stop offset="0" stop-color="#d9831f"/><stop offset="1" stop-color="#8a3f0a"/></linearGradient>
<filter id="blur"><feGaussianBlur stdDeviation="14"/></filter>
<filter id="blur2"><feGaussianBlur stdDeviation="40"/></filter>
<filter id="shadow" x="-30%" y="-30%" width="160%" height="160%"><feGaussianBlur stdDeviation="18"/></filter>
</defs><rect x="0" y="0" width="1400" height="202" fill="url(#wood)" opacity="0.85"/><rect x="0" y="0" width="1400" height="3" fill="#000" opacity=".45"/><path d="M518 109 q281 3 562 -5" stroke="#1c0f07" stroke-opacity=".35" stroke-width="1.0" fill="none"/><path d="M363 167 q170 10 341 -0" stroke="#1c0f07" stroke-opacity=".35" stroke-width="2.7" fill="none"/><path d="M895 95 q145 3 290 4" stroke="#1c0f07" stroke-opacity=".35" stroke-width="2.0" fill="none"/><path d="M940 148 q119 5 238 1" stroke="#1c0f07" stroke-opacity=".35" stroke-width="1.6" fill="none"/><path d="M1212 6 q242 4 484 5" stroke="#1c0f07" stroke-opacity=".35" stroke-width="2.4" fill="none"/><path d="M553 184 q340 -1 681 5" stroke="#1c0f07" stroke-opacity=".35" stroke-width="2.8" fill="none"/><path d="M190 19 q165 9 330 -1" stroke="#1c0f07" stroke-opacity=".35" stroke-width="2.3" fill="none"/><path d="M710 60 q216 -3 432 1" stroke="#1c0f07" stroke-opacity=".35" stroke-width="2.2" fill="none"/><path d="M955 181 q379 7 757 6" stroke="#1c0f07" stroke-opacity=".35" stroke-width="2.3" fill="none"/><rect x="0" y="200" width="1400" height="202" fill="url(#wood)" opacity="0.83"/><rect x="0" y="200" width="1400" height="3" fill="#000" opacity=".45"/><path d="M1350 372 q371 1 743 3" stroke="#1c0f07" stroke-opacity=".35" stroke-width="1.4" fill="none"/><path d="M803 366 q185 -9 371 4" stroke="#1c0f07" stroke-opacity=".35" stroke-width="3.0" fill="none"/><path d="M1121 218 q223 -7 446 -2" stroke="#1c0f07" stroke-opacity=".35" stroke-width="2.5" fill="none"/><path d="M62 375 q284 -9 569 3" stroke="#1c0f07" stroke-opacity=".35" stroke-width="1.7" fill="none"/><path d="M1373 376 q252 10 503 -2" stroke="#1c0f07" stroke-opacity=".35" stroke-width="1.2" fill="none"/><path d="M44 320 q159 -2 318 1" stroke="#1c0f07" stroke-opacity=".35" stroke-width="1.3" fill="none"/><path d="M1215 208 q194 9 388 5" stroke="#1c0f07" stroke-opacity=".35" stroke-width="1.8" fill="none"/><path d="M728 292 q293 2 586 1" stroke="#1c0f07" stroke-opacity=".35" stroke-width="2.2" fill="none"/><path d="M710 388 q229 4 459 -3" stroke="#1c0f07" stroke-opacity=".35" stroke-width="1.6" fill="none"/><rect x="0" y="400" width="1400" height="202" fill="url(#wood)" opacity="1.00"/><rect x="0" y="400" width="1400" height="3" fill="#000" opacity=".45"/><path d="M768 504 q103 -2 207 1" stroke="#1c0f07" stroke-opacity=".35" stroke-width="1.0" fill="none"/><path d="M885 523 q118 3 236 -0" stroke="#1c0f07" stroke-opacity=".35" stroke-width="2.4" fill="none"/><path d="M990 471 q321 -10 643 -5" stroke="#1c0f07" stroke-opacity=".35" stroke-width="2.4" fill="none"/><path d="M352 593 q237 2 474 -2" stroke="#1c0f07" stroke-opacity=".35" stroke-width="1.7" fill="none"/><path d="M517 463 q279 -4 557 -1" stroke="#1c0f07" stroke-opacity=".35" stroke-width="2.5" fill="none"/><path d="M797 405 q321 -4 641 -3" stroke="#1c0f07" stroke-opacity=".35" stroke-width="2.6" fill="none"/><path d="M262 448 q231 4 461 -5" stroke="#1c0f07" stroke-opacity=".35" stroke-width="1.6" fill="none"/><path d="M1167 467 q232 7 463 -4" stroke="#1c0f07" stroke-opacity=".35" stroke-width="1.7" fill="none"/><path d="M1239 530 q235 -5 471 -5" stroke="#1c0f07" stroke-opacity=".35" stroke-width="2.1" fill="none"/><rect x="0" y="600" width="1400" height="202" fill="url(#wood)" opacity="0.84"/><rect x="0" y="600" width="1400" height="3" fill="#000" opacity=".45"/><path d="M1174 761 q155 -4 310 4" stroke="#1c0f07" stroke-opacity=".35" stroke-width="2.3" fill="none"/><path d="M483 761 q139 -4 278 4" stroke="#1c0f07" stroke-opacity=".35" stroke-width="1.5" fill="none"/><path d="M584 669 q226 -2 452 5" stroke="#1c0f07" stroke-opacity=".35" stroke-width="1.3" fill="none"/><path d="M1321 601 q364 10 728 -1" stroke="#1c0f07" stroke-opacity=".35" stroke-width="2.9" fill="none"/><path d="M311 785 q324 7 647 2" stroke="#1c0f07" stroke-opacity=".35" stroke-width="2.0" fill="none"/><path d="M477 658 q168 -9 336 1" stroke="#1c0f07" stroke-opacity=".35" stroke-width="1.6" fill="none"/><path d="M63 762 q371 4 742 5" stroke="#1c0f07" stroke-opacity=".35" stroke-width="2.8" fill="none"/><path d="M808 780 q104 5 208 -4" stroke="#1c0f07" stroke-opacity=".35" stroke-width="1.6" fill="none"/><path d="M735 733 q224 9 448 1" stroke="#1c0f07" stroke-opacity=".35" stroke-width="1.7" fill="none"/><rect x="0" y="800" width="1400" height="202" fill="url(#wood)" opacity="0.85"/><rect x="0" y="800" width="1400" height="3" fill="#000" opacity=".45"/><path d="M668 972 q335 -3 669 -4" stroke="#1c0f07" stroke-opacity=".35" stroke-width="2.1" fill="none"/><path d="M240 963 q338 8 675 4" stroke="#1c0f07" stroke-opacity=".35" stroke-width="2.6" fill="none"/><path d="M880 802 q359 -9 718 -3" stroke="#1c0f07" stroke-opacity=".35" stroke-width="1.5" fill="none"/><path d="M592 905 q242 6 484 -6" stroke="#1c0f07" stroke-opacity=".35" stroke-width="1.1" fill="none"/><path d="M174 825 q121 9 241 4" stroke="#1c0f07" stroke-opacity=".35" stroke-width="1.2" fill="none"/><path d="M442 900 q194 -3 389 2" stroke="#1c0f07" stroke-opacity=".35" stroke-width="2.2" fill="none"/><path d="M268 872 q199 -8 397 1" stroke="#1c0f07" stroke-opacity=".35" stroke-width="2.4" fill="none"/><path d="M112 876 q154 -3 307 1" stroke="#1c0f07" stroke-opacity=".35" stroke-width="2.6" fill="none"/><path d="M1122 876 q287 -1 574 -2" stroke="#1c0f07" stroke-opacity=".35" stroke-width="2.0" fill="none"/><rect x="0" y="1000" width="1400" height="202" fill="url(#wood)" opacity="0.94"/><rect x="0" y="1000" width="1400" height="3" fill="#000" opacity=".45"/><path d="M972 1084 q238 -5 477 0" stroke="#1c0f07" stroke-opacity=".35" stroke-width="2.4" fill="none"/><path d="M595 1014 q228 8 456 5" stroke="#1c0f07" stroke-opacity=".35" stroke-width="1.7" fill="none"/><path d="M1107 1180 q179 -1 357 -5" stroke="#1c0f07" stroke-opacity=".35" stroke-width="2.6" fill="none"/><path d="M1242 1132 q338 3 675 3" stroke="#1c0f07" stroke-opacity=".35" stroke-width="2.1" fill="none"/><path d="M823 1021 q101 -7 203 3" stroke="#1c0f07" stroke-opacity=".35" stroke-width="1.1" fill="none"/><path d="M139 1018 q364 -6 728 -6" stroke="#1c0f07" stroke-opacity=".35" stroke-width="2.7" fill="none"/><path d="M1182 1024 q302 7 604 5" stroke="#1c0f07" stroke-opacity=".35" stroke-width="2.2" fill="none"/><path d="M51 1160 q330 0 660 3" stroke="#1c0f07" stroke-opacity=".35" stroke-width="1.2" fill="none"/><path d="M1308 1150 q118 -4 237 1" stroke="#1c0f07" stroke-opacity=".35" stroke-width="2.7" fill="none"/><rect x="0" y="1200" width="1400" height="202" fill="url(#wood)" opacity="0.85"/><rect x="0" y="1200" width="1400" height="3" fill="#000" opacity=".45"/><path d="M350 1236 q285 5 570 -1" stroke="#1c0f07" stroke-opacity=".35" stroke-width="1.7" fill="none"/><path d="M490 1279 q225 -8 451 0" stroke="#1c0f07" stroke-opacity=".35" stroke-width="2.9" fill="none"/><path d="M1046 1283 q148 4 296 3" stroke="#1c0f07" stroke-opacity=".35" stroke-width="2.3" fill="none"/><path d="M677 1303 q293 8 586 -4" stroke="#1c0f07" stroke-opacity=".35" stroke-width="1.2" fill="none"/><path d="M1283 1350 q255 -1 510 3" stroke="#1c0f07" stroke-opacity=".35" stroke-width="1.4" fill="none"/><path d="M279 1253 q276 -4 551 -3" stroke="#1c0f07" stroke-opacity=".35" stroke-width="2.4" fill="none"/><path d="M414 1391 q312 -2 623 4" stroke="#1c0f07" stroke-opacity=".35" stroke-width="2.2" fill="none"/><path d="M305 1253 q107 -0 214 -1" stroke="#1c0f07" stroke-opacity=".35" stroke-width="1.3" fill="none"/><path d="M451 1272 q332 -7 665 6" stroke="#1c0f07" stroke-opacity=".35" stroke-width="2.0" fill="none"/><rect width="1400" height="1400" fill="url(#glow)" transform="translate(0.0 0)"/><circle cx="664" cy="414" r="53" fill="#ffc861" opacity="0.16" filter="url(#blur)"/><circle cx="15" cy="236" r="32" fill="#ffc861" opacity="0.35" filter="url(#blur)"/><circle cx="967" cy="379" r="47" fill="#ffc861" opacity="0.31" filter="url(#blur)"/><circle cx="203" cy="277" r="26" fill="#ffc861" opacity="0.37" filter="url(#blur)"/><circle cx="82" cy="516" r="22" fill="#ffc861" opacity="0.31" filter="url(#blur)"/><circle cx="472" cy="255" r="62" fill="#ffc861" opacity="0.13" filter="url(#blur)"/><circle cx="85" cy="576" r="44" fill="#ffc861" opacity="0.15" filter="url(#blur)"/><circle cx="1382" cy="596" r="24" fill="#ffc861" opacity="0.24" filter="url(#blur)"/><circle cx="189" cy="197" r="50" fill="#ffc861" opacity="0.17" filter="url(#blur)"/><circle cx="976" cy="32" r="27" fill="#ffc861" opacity="0.35" filter="url(#blur)"/><circle cx="561" cy="264" r="49" fill="#ffc861" opacity="0.25" filter="url(#blur)"/><circle cx="538" cy="19" r="56" fill="#ffc861" opacity="0.39" filter="url(#blur)"/><circle cx="1367" cy="418" r="37" fill="#ffc861" opacity="0.22" filter="url(#blur)"/><circle cx="966" cy="424" r="24" fill="#ffc861" opacity="0.19" filter="url(#blur)"/><circle cx="509" cy="322" r="60" fill="#ffc861" opacity="0.26" filter="url(#blur)"/><circle cx="39" cy="518" r="40" fill="#ffc861" opacity="0.27" filter="url(#blur)"/><ellipse cx="700" cy="969.8399999999999" rx="588.0" ry="112.0" fill="#000" opacity=".55" filter="url(#shadow)"/><ellipse cx="700" cy="910.816" rx="212.8" ry="39.2" fill="#a88f64"/><path d="M140 640 Q168.0 1004.56 700 969.8399999999999 Q1232.0 1004.56 1260 640 Z" fill="url(#ceramic)"/><path d="M196.0 771.936 Q700 855.264 1204.0 771.936" stroke="#b8231c" stroke-width="25.2" fill="none" opacity=".85"/><ellipse cx="700" cy="640" rx="560" ry="168.0" fill="#f5ead2" stroke="#c9b48a" stroke-width="3"/><ellipse cx="700" cy="645.6" rx="515.2" ry="142.8" fill="url(#broth)"/><path d="M769 578 q45 -22 95 -0" stroke="#f3dca5" stroke-width="20" stroke-linecap="round" fill="none"/><path d="M700 640 q45 -22 95 3" stroke="#f3dca5" stroke-width="20" stroke-linecap="round" fill="none"/><path d="M466 651 q45 -22 95 -2" stroke="#f3dca5" stroke-width="20" stroke-linecap="round" fill="none"/><path d="M711 619 q45 -22 95 5" stroke="#f3dca5" stroke-width="20" stroke-linecap="round" fill="none"/><path d="M683 608 q45 -22 95 1" stroke="#f3dca5" stroke-width="20" stroke-linecap="round" fill="none"/><path d="M675 626 q45 -22 95 1" stroke="#f3dca5" stroke-width="20" stroke-linecap="round" fill="none"/><path d="M728 620 q45 -22 95 5" stroke="#f3dca5" stroke-width="20" stroke-linecap="round" fill="none"/><path d="M595 579 q45 -22 95 -3" stroke="#f3dca5" stroke-width="20" stroke-linecap="round" fill="none"/><path d="M909 675 q45 -22 95 5" stroke="#f3dca5" stroke-width="20" stroke-linecap="round" fill="none"/><path d="M672 642 q45 -22 95 -5" stroke="#f3dca5" stroke-width="20" stroke-linecap="round" fill="none"/><path d="M639 623 q45 -22 95 7" stroke="#f3dca5" stroke-width="20" stroke-linecap="round" fill="none"/><path d="M646 632 q45 -22 95 2" stroke="#f3dca5" stroke-width="20" stroke-linecap="round" fill="none"/><path d="M513 696 q45 -22 95 7" stroke="#f3dca5" stroke-width="20" stroke-linecap="round" fill="none"/><path d="M499 635 q45 -22 95 3" stroke="#f3dca5" stroke-width="20" stroke-linecap="round" fill="none"/><path d="M804 568 q45 -22 95 -8" stroke="#f3dca5" stroke-width="20" stroke-linecap="round" fill="none"/><path d="M579 676 q45 -22 95 -3" stroke="#f3dca5" stroke-width="20" stroke-linecap="round" fill="none"/><path d="M676 636 q45 -22 95 6" stroke="#f3dca5" stroke-width="20" stroke-linecap="round" fill="none"/><path d="M664 639 q45 -22 95 3" stroke="#f3dca5" stroke-width="20" stroke-linecap="round" fill="none"/><path d="M677 654 q45 -22 95 -0" stroke="#f3dca5" stroke-width="20" stroke-linecap="round" fill="none"/><path d="M743 653 q45 -22 95 6" stroke="#f3dca5" stroke-width="20" stroke-linecap="round" fill="none"/><path d="M699 639 q45 -22 95 4" stroke="#f3dca5" stroke-width="20" stroke-linecap="round" fill="none"/><path d="M804 643 q45 -22 95 6" stroke="#f3dca5" stroke-width="20" stroke-linecap="round" fill="none"/><path d="M630 624 q45 -22 95 -2" stroke="#f3dca5" stroke-width="20" stroke-linecap="round" fill="none"/><path d="M670 646 q45 -22 95 8" stroke="#f3dca5" stroke-width="20" stroke-linecap="round" fill="none"/><path d="M825 651 q45 -22 95 4" stroke="#f3dca5" stroke-width="20" stroke-linecap="round" fill="none"/><path d="M454 686 q45 -22 95 -4" stroke="#f3dca5" stroke-width="20" stroke-linecap="round" fill="none"/><ellipse cx="532.0" cy="628.8" rx="84.0" ry="42.0" fill="#fff8e6"/><ellipse cx="532.0" cy="628.8" rx="33.6" ry="16.8" fill="#f2a900"/><ellipse cx="823.2" cy="628.8" rx="84.0" ry="42.0" fill="#fff8e6"/><ellipse cx="823.2" cy="628.8" rx="33.6" ry="16.8" fill="#f2a900"/><circle cx="1121" cy="625" r="11.2" fill="#2c7a38"/><circle cx="884" cy="554" r="11.5" fill="#2c7a38"/><circle cx="646" cy="592" r="8.7" fill="#8a4a12"/><circle cx="608" cy="590" r="6.9" fill="#b9701c"/><circle cx="584" cy="633" r="8.6" fill="#3f9a45"/><circle cx="543" cy="639" r="16.6" fill="#3f9a45"/><circle cx="880" cy="617" r="9.4" fill="#2c7a38"/><circle cx="475" cy="649" r="14.0" fill="#b9701c"/><circle cx="398" cy="642" r="10.0" fill="#2c7a38"/><circle cx="450" cy="539" r="13.7" fill="#2c7a38"/><circle cx="670" cy="719" r="14.1" fill="#2c7a38"/><circle cx="915" cy="725" r="13.0" fill="#8a4a12"/><circle cx="785" cy="635" r="13.6" fill="#8a4a12"/><circle cx="378" cy="728" r="15.3" fill="#2c7a38"/><circle cx="785" cy="649" r="12.9" fill="#3f9a45"/><circle cx="372" cy="685" r="7.5" fill="#2c7a38"/><circle cx="720" cy="685" r="13.6" fill="#b9701c"/><circle cx="706" cy="679" r="13.1" fill="#8a4a12"/><circle cx="741" cy="647" r="11.4" fill="#2c7a38"/><circle cx="941" cy="594" r="12.9" fill="#b9701c"/><circle cx="768" cy="631" r="15.9" fill="#3f9a45"/><circle cx="868" cy="605" r="14.7" fill="#8a4a12"/><circle cx="993" cy="728" r="11.5" fill="#2c7a38"/><circle cx="453" cy="666" r="13.9" fill="#2c7a38"/><circle cx="1051" cy="678" r="9.6" fill="#3f9a45"/><circle cx="737" cy="636" r="9.5" fill="#3f9a45"/><circle cx="900" cy="629" r="7.0" fill="#3f9a45"/><circle cx="1034" cy="692" r="12.1" fill="#b9701c"/><circle cx="781" cy="644" r="7.0" fill="#3f9a45"/><circle cx="1036" cy="613" r="13.8" fill="#b9701c"/><circle cx="680" cy="648" r="10.7" fill="#8a4a12"/><circle cx="933" cy="709" r="8.0" fill="#8a4a12"/><circle cx="426" cy="737" r="12.0" fill="#b9701c"/><circle cx="779" cy="668" r="11.8" fill="#b9701c"/><circle cx="922" cy="560" r="13.7" fill="#b9701c"/><circle cx="687" cy="625" r="14.4" fill="#b9701c"/><circle cx="967" cy="637" r="14.6" fill="#8a4a12"/><circle cx="619" cy="630" r="15.3" fill="#3f9a45"/><circle cx="695" cy="640" r="13.9" fill="#b9701c"/><circle cx="465" cy="562" r="9.5" fill="#3f9a45"/><ellipse cx="504.0" cy="606.4" rx="112.0" ry="16.8" fill="#fff" opacity=".35"/><path d="M581.2121212121212 556.0 c-50.909090909090914 -84.84848484848484 50.909090909090914 -152.72727272727272 0 -254.54545454545456 c-42.42424242424242 -67.87878787878788 42.42424242424242 -118.7878787878788 0 -186.66666666666669" stroke="#fff" stroke-opacity=".22" stroke-width="27.151515151515152" stroke-linecap="round" fill="none" filter="url(#blur)"/><path d="M700.0 556.0 c-50.909090909090914 -84.84848484848484 50.909090909090914 -152.72727272727272 0 -254.54545454545456 c-42.42424242424242 -67.87878787878788 42.42424242424242 -118.7878787878788 0 -186.66666666666669" stroke="#fff" stroke-opacity=".22" stroke-width="27.151515151515152" stroke-linecap="round" fill="none" filter="url(#blur)"/><path d="M818.7878787878788 556.0 c-50.909090909090914 -84.84848484848484 50.909090909090914 -152.72727272727272 0 -254.54545454545456 c-42.42424242424242 -67.87878787878788 42.42424242424242 -118.7878787878788 0 -186.66666666666669" stroke="#fff" stroke-opacity=".22" stroke-width="27.151515151515152" stroke-linecap="round" fill="none" filter="url(#blur)"/><rect width="1400" height="1400" fill="url(#vig)" opacity="0.7"/></svg>