<svg xmlns="http://www.w3.org/2000/svg" viewBox="0 0 1600 1200" width="1600" height="1200" preserveAspectRatio="xMidYMid slice"><defs>
<linearGradient id="wood" x1="0" y1="0" x2="0" y2="1"><stop offset="0" stop-color="#5a3418"/><stop offset="1" stop-color="#2b170b"/></linearGradient>
<linearGradient id="wood2" x1="0" y1="0" x2="1" y2="1"><stop offset="0" stop-color="#7a4a24"/><stop offset="1" stop-color="#3d2210"/></linearGradient>
<radialGradient id="glow" cx=".5" cy=".4" r=".7"><stop offset="0" stop-color="#ffb347" stop-opacity=".55"/><stop offset="1" stop-color="#ffb347" stop-opacity="0"/></radialGradient>
<radialGradient id="vig" cx=".5" cy=".5" r=".75"><stop offset=".55" stop-color="#000" stop-opacity="0"/><stop offset="1" stop-color="#000" stop-opacity=".6"/></radialGradient>
<radialGradient id="broth" cx=".4" cy=".35" r=".8"><stop offset="0" stop-color="#ffe27a"/><stop offset=".6" stop-color="#f2b81c"/><stop offset="1" stop-color="#c98a0a"/></radialGradient>
<linearGradient id="ceramic" x1="0" y1="0" x2="1" y2="1"><stop offset="0" stop-color="#fffaf0"/><stop offset="1" stop-color="#d9c9a8"/></linearGradient>
<linearGradient id="tea" x1="0" y1="0" x2="0" y2="1"><stop offset="0" stop-color="#d9831f"/><stop offset="1" stop-color="#8a3f0a"/></linearGradient>
<filter id="blur"><feGaussianBlur stdDeviation="14"/></filter>
<filter id="blur2"><feGaussianBlur stdDeviation="40"/></filter>
<filter id="shadow" x="-30%" y="-30%" width="160%" height="160%"><feGaussianBlur stdDeviation="18"/></filter>
<filter id="sepia"><feColorMatrix type="matrix" values=".4 .5 .1 0 0 .35 .45 .1 0 0 .25 .35 .08 0 0 0 0 0 1 0"/></filter></defs><g filter="url(#sepia)"><rect x="0" y="0" width="1600" height="173" fill="url(#wood2)" opacity="0.92"/><rect x="0" y="0" width="1600" height="3" fill="#000" opacity=".45"/><path d="M1272 127 q383 5 765 5" stroke="#1c0f07" stroke-opacity=".35" stroke-width="1.1" fill="none"/><path d="M1509 80 q295 8 589 -5" stroke="#1c0f07" stroke-opacity=".35" stroke-width="1.9" fill="none"/><path d="M870 42 q272 -10 544 -3" stroke="#1c0f07" stroke-opacity=".35" stroke-width="1.6" fill="none"/><path d="M1225 157 q148 6 296 -4" stroke="#1c0f07" stroke-opacity=".35" stroke-width="2.2" fill="none"/><path d="M3 22 q361 -6 723 -3" stroke="#1c0f07" stroke-opacity=".35" stroke-width="3.0" fill="none"/><path d="M463 150 q388 1 777 2" stroke="#1c0f07" stroke-opacity=".35" stroke-width="1.4" fill="none"/><path d="M1105 161 q390 8 780 -2" stroke="#1c0f07" stroke-opacity=".35" stroke-width="1.7" fill="none"/><path d="M233 28 q120 -4 239 1" stroke="#1c0f07" stroke-opacity=".35" stroke-width="1.0" fill="none"/><path d="M541 116 q193 6 386 -0" stroke="#1c0f07" stroke-opacity=".35" stroke-width="1.6" fill="none"/><rect x="0" y="171" width="1600" height="173" fill="url(#wood2)" opacity="0.90"/><rect x="0" y="171" width="1600" height="3" fill="#000" opacity=".45"/><path d="M91 292 q393 -10 785 3" stroke="#1c0f07" stroke-opacity=".35" stroke-width="2.7" fill="none"/><path d="M1260 175 q210 2 420 -6" stroke="#1c0f07" stroke-opacity=".35" stroke-width="1.1" fill="none"/><path d="M1528 202 q159 5 318 5" stroke="#1c0f07" stroke-opacity=".35" stroke-width="2.9" fill="none"/><path d="M568 230 q257 6 515 -5" stroke="#1c0f07" stroke-opacity=".35" stroke-width="2.5" fill="none"/><path d="M1376 308 q111 9 222 -5" stroke="#1c0f07" stroke-opacity=".35" stroke-width="1.7" fill="none"/><path d="M1469 276 q202 8 404 1" stroke="#1c0f07" stroke-opacity=".35" stroke-width="1.6" fill="none"/><path d="M284 226 q123 -7 247 2" stroke="#1c0f07" stroke-opacity=".35" stroke-width="3.0" fill="none"/><path d="M78 199 q396 1 792 -1" stroke="#1c0f07" stroke-opacity=".35" stroke-width="1.5" fill="none"/><path d="M1322 273 q237 -2 473 -5" stroke="#1c0f07" stroke-opacity=".35" stroke-width="2.8" fill="none"/><rect x="0" y="343" width="1600" height="173" fill="url(#wood2)" opacity="0.81"/><rect x="0" y="343" width="1600" height="3" fill="#000" opacity=".45"/><path d="M1341 427 q139 5 278 5" stroke="#1c0f07" stroke-opacity=".35" stroke-width="2.3" fill="none"/><path d="M171 478 q230 -7 461 4" stroke="#1c0f07" stroke-opacity=".35" stroke-width="1.6" fill="none"/><path d="M1599 421 q356 10 711 -1" stroke="#1c0f07" stroke-opacity=".35" stroke-width="2.0" fill="none"/><path d="M766 468 q187 -2 375 -4" stroke="#1c0f07" stroke-opacity=".35" stroke-width="1.8" fill="none"/><path d="M1536 512 q288 -0 576 -2" stroke="#1c0f07" stroke-opacity=".35" stroke-width="1.2" fill="none"/><path d="M1251 390 q360 -3 720 3" stroke="#1c0f07" stroke-opacity=".35" stroke-width="2.5" fill="none"/><path d="M1062 462 q328 -3 656 2" stroke="#1c0f07" stroke-opacity=".35" stroke-width="1.6" fill="none"/><path d="M1232 426 q307 -4 615 5" stroke="#1c0f07" stroke-opacity=".35" stroke-width="2.3" fill="none"/><path d="M19 442 q264 -5 528 2" stroke="#1c0f07" stroke-opacity=".35" stroke-width="1.9" fill="none"/><rect x="0" y="514" width="1600" height="173" fill="url(#wood2)" opacity="0.96"/><rect x="0" y="514" width="1600" height="3" fill="#000" opacity=".45"/><path d="M1276 625 q204 3 409 3" stroke="#1c0f07" stroke-opacity=".35" stroke-width="2.7" fill="none"/><path d="M1349 574 q361 4 722 6" stroke="#1c0f07" stroke-opacity=".35" stroke-width="2.9" fill="none"/><path d="M847 603 q150 7 300 5" stroke="#1c0f07" stroke-opacity=".35" stroke-width="2.0" fill="none"/><path d="M1151 633 q319 -7 638 3" stroke="#1c0f07" stroke-opacity=".35" stroke-width="2.2" fill="none"/><path d="M673 628 q287 5 574 2" stroke="#1c0f07" stroke-opacity=".35" stroke-width="2.4" fill="none"/><path d="M256 519 q232 3 465 -3" stroke="#1c0f07" stroke-opacity=".35" stroke-width="2.4" fill="none"/><path d="M67 622 q241 -5 483 -5" stroke="#1c0f07" stroke-opacity=".35" stroke-width="1.3" fill="none"/><path d="M290 569 q158 -9 316 -0" stroke="#1c0f07" stroke-opacity=".35" stroke-width="1.8" fill="none"/><path d="M944 619 q171 8 343 -6" stroke="#1c0f07" stroke-opacity=".35" stroke-width="1.8" fill="none"/><rect x="0" y="686" width="1600" height="173" fill="url(#wood2)" opacity="0.86"/><rect x="0" y="686" width="1600" height="3" fill="#000" opacity=".45"/><path d="M184 756 q349 -3 699 -6" stroke="#1c0f07" stroke-opacity=".35" stroke-width="2.2" fill="none"/><path d="M872 702 q202 2 404 5" stroke="#1c0f07" stroke-opacity=".35" stroke-width="2.6" fill="none"/><path d="M1301 758 q293 -3 585 -4" stroke="#1c0f07" stroke-opacity=".35" stroke-width="2.2" fill="none"/><path d="M1532 782 q390 2 781 -2" stroke="#1c0f07" stroke-opacity=".35" stroke-width="2.8" fill="none"/><path d="M173 686 q270 2 539 -4" stroke="#1c0f07" stroke-opacity=".35" stroke-width="2.3" fill="none"/><path d="M601 839 q230 -5 459 -3" stroke="#1c0f07" stroke-opacity=".35" stroke-width="2.9" fill="none"/><path d="M1538 751 q374 2 748 -3" stroke="#1c0f07" stroke-opacity=".35" stroke-width="3.0" fill="none"/><path d="M665 771 q196 10 391 -0" stroke="#1c0f07" stroke-opacity=".35" stroke-width="1.6" fill="none"/><path d="M195 767 q287 -1 573 -2" stroke="#1c0f07" stroke-opacity=".35" stroke-width="2.6" fill="none"/><rect x="0" y="857" width="1600" height="173" fill="url(#wood2)" opacity="0.97"/><rect x="0" y="857" width="1600" height="3" fill="#000" opacity=".45"/><path d="M852 859 q182 9 364 3" stroke="#1c0f07" stroke-opacity=".35" stroke-width="1.5" fill="none"/><path d="M248 903 q397 -4 793 1" stroke="#1c0f07" stroke-opacity=".35" stroke-width="1.9" fill="none"/><path d="M966 968 q323 -8 646 3" stroke="#1c0f07" stroke-opacity=".35" stroke-width="1.6" fill="none"/><path d="M538 949 q189 1 378 -0" stroke="#1c0f07" stroke-opacity=".35" stroke-width="1.7" fill="none"/><path d="M945 985 q111 -5 222 -1" stroke="#1c0f07" stroke-opacity=".35" stroke-width="2.8" fill="none"/><path d="M873 1009 q104 6 209 -1" stroke="#1c0f07" stroke-opacity=".35" stroke-width="2.2" fill="none"/><path d="M1012 979 q245 8 489 -1" stroke="#1c0f07" stroke-opacity=".35" stroke-width="1.8" fill="none"/><path d="M314 1003 q189 7 378 -5" stroke="#1c0f07" stroke-opacity=".35" stroke-width="2.7" fill="none"/><path d="M693 976 q186 6 372 5" stroke="#1c0f07" stroke-opacity=".35" stroke-width="1.3" fill="none"/><rect x="0" y="1029" width="1600" height="173" fill="url(#wood2)" opacity="0.90"/><rect x="0" y="1029" width="1600" height="3" fill="#000" opacity=".45"/><path d="M796 1123 q199 -7 398 1" stroke="#1c0f07" stroke-opacity=".35" stroke-width="2.6" fill="none"/><path d="M368 1040 q346 6 692 2" stroke="#1c0f07" stroke-opacity=".35" stroke-width="1.1" fill="none"/><path d="M1566 1152 q400 4 799 -5" stroke="#1c0f07" stroke-opacity=".35" stroke-width="2.7" fill="none"/><path d="M1033 1066 q386 4 771 -4" stroke="#1c0f07" stroke-opacity=".35" stroke-width="1.6" fill="none"/><path d="M240 1186 q283 -2 566 -4" stroke="#1c0f07" stroke-opacity=".35" stroke-width="2.2" fill="none"/><path d="M173 1036 q214 -9 428 -5" stroke="#1c0f07" stroke-opacity=".35" stroke-width="2.2" fill="none"/><path d="M1406 1156 q140 -1 281 -2" stroke="#1c0f07" stroke-opacity=".35" stroke-width="2.2" fill="none"/><path d="M1502 1112 q212 -9 425 2" stroke="#1c0f07" stroke-opacity=".35" stroke-width="1.3" fill="none"/><path d="M809 1137 q373 1 746 1" stroke="#1c0f07" stroke-opacity=".35" stroke-width="1.5" fill="none"/><rect width="1600" height="1200" fill="url(#glow)"/><ellipse cx="800.0" cy="942.72" rx="504.0" ry="96.0" fill="#000" opacity=".55" filter="url(#shadow)"/><ellipse cx="800.0" cy="892.128" rx="182.4" ry="33.6" fill="#a88f64"/><path d="M320.0 660.0 Q344.0 972.48 800.0 942.72 Q1256.0 972.48 1280.0 660.0 Z" fill="url(#ceramic)"/><path d="M368.0 773.088 Q800.0 844.512 1232.0 773.088" stroke="#b8231c" stroke-width="21.599999999999998" fill="none" opacity=".85"/><ellipse cx="800.0" cy="660.0" rx="480.0" ry="144.0" fill="#f5ead2" stroke="#c9b48a" stroke-width="3"/><ellipse cx="800.0" cy="664.8" rx="441.6" ry="122.4" fill="url(#broth)"/><path d="M838 724 q38 -19 82 -6" stroke="#f3dca5" stroke-width="17" stroke-linecap="round" fill="none"/><path d="M794 655 q38 -19 82 -4" stroke="#f3dca5" stroke-width="17" stroke-linecap="round" fill="none"/><path d="M856 660 q38 -19 82 2" stroke="#f3dca5" stroke-width="17" stroke-linecap="round" fill="none"/><path d="M682 668 q38 -19 82 -0" stroke="#f3dca5" stroke-width="17" stroke-linecap="round" fill="none"/><path d="M879 712 q38 -19 82 -7" stroke="#f3dca5" stroke-width="17" stroke-linecap="round" fill="none"/><path d="M801 661 q38 -19 82 -4" stroke="#f3dca5" stroke-width="17" stroke-linecap="round" fill="none"/><path d="M597 693 q38 -19 82 -2" stroke="#f3dca5" stroke-width="17" stroke-linecap="round" fill="none"/><path d="M852 671 q38 -19 82 8" stroke="#f3dca5" stroke-width="17" stroke-linecap="round" fill="none"/><path d="M954 676 q38 -19 82 -2" stroke="#f3dca5" stroke-width="17" stroke-linecap="round" fill="none"/><path d="M752 641 q38 -19 82 3" stroke="#f3dca5" stroke-width="17" stroke-linecap="round" fill="none"/><path d="M625 661 q38 -19 82 6" stroke="#f3dca5" stroke-width="17" stroke-linecap="round" fill="none"/><path d="M767 655 q38 -19 82 -7" stroke="#f3dca5" stroke-width="17" stroke-linecap="round" fill="none"/><path d="M924 649 q38 -19 82 -5" stroke="#f3dca5" stroke-width="17" stroke-linecap="round" fill="none"/><path d="M947 647 q38 -19 82 4" stroke="#f3dca5" stroke-width="17" stroke-linecap="round" fill="none"/><path d="M856 647 q38 -19 82 -2" stroke="#f3dca5" stroke-width="17" stroke-linecap="round" fill="none"/><path d="M826 654 q38 -19 82 4" stroke="#f3dca5" stroke-width="17" stroke-linecap="round" fill="none"/><path d="M952 687 q38 -19 82 3" stroke="#f3dca5" stroke-width="17" stroke-linecap="round" fill="none"/><path d="M1015 642 q38 -19 82 0" stroke="#f3dca5" stroke-width="17" stroke-linecap="round" fill="none"/><path d="M813 670 q38 -19 82 0" stroke="#f3dca5" stroke-width="17" stroke-linecap="round" fill="none"/><path d="M781 660 q38 -19 82 6" stroke="#f3dca5" stroke-width="17" stroke-linecap="round" fill="none"/><path d="M612 658 q38 -19 82 -4" stroke="#f3dca5" stroke-width="17" stroke-linecap="round" fill="none"/><path d="M800 661 q38 -19 82 -3" stroke="#f3dca5" stroke-width="17" stroke-linecap="round" fill="none"/><path d="M788 688 q38 -19 82 -2" stroke="#f3dca5" stroke-width="17" stroke-linecap="round" fill="none"/><path d="M921 608 q38 -19 82 -5" stroke="#f3dca5" stroke-width="17" stroke-linecap="round" fill="none"/><path d="M765 667 q38 -19 82 3" stroke="#f3dca5" stroke-width="17" stroke-linecap="round" fill="none"/><path d="M854 658 q38 -19 82 4" stroke="#f3dca5" stroke-width="17" stroke-linecap="round" fill="none"/><ellipse cx="656.0" cy="650.4" rx="72.0" ry="36.0" fill="#fff8e6"/><ellipse cx="656.0" cy="650.4" rx="28.799999999999997" ry="14.399999999999999" fill="#f2a900"/><ellipse cx="905.6" cy="650.4" rx="72.0" ry="36.0" fill="#fff8e6"/><ellipse cx="905.6" cy="650.4" rx="28.799999999999997" ry="14.399999999999999" fill="#f2a900"/><circle cx="798" cy="661" r="8.7" fill="#2c7a38"/><circle cx="886" cy="700" r="7.0" fill="#b9701c"/><circle cx="647" cy="643" r="10.8" fill="#8a4a12"/><circle cx="791" cy="670" r="11.5" fill="#8a4a12"/><circle cx="819" cy="605" r="12.7" fill="#b9701c"/><circle cx="511" cy="658" r="7.4" fill="#8a4a12"/><circle cx="918" cy="641" r="12.2" fill="#8a4a12"/><circle cx="566" cy="742" r="11.3" fill="#8a4a12"/><circle cx="775" cy="660" r="13.4" fill="#8a4a12"/><circle cx="1023" cy="597" r="7.3" fill="#b9701c"/><circle cx="977" cy="651" r="7.5" fill="#8a4a12"/><circle cx="854" cy="745" r="9.1" fill="#b9701c"/><circle cx="1029" cy="708" r="12.0" fill="#b9701c"/><circle cx="763" cy="659" r="10.6" fill="#2c7a38"/><circle cx="875" cy="616" r="7.5" fill="#8a4a12"/><circle cx="758" cy="664" r="11.9" fill="#8a4a12"/><circle cx="793" cy="658" r="12.9" fill="#3f9a45"/><circle cx="407" cy="642" r="10.1" fill="#b9701c"/><circle cx="730" cy="696" r="5.8" fill="#b9701c"/><circle cx="519" cy="598" r="13.8" fill="#3f9a45"/><circle cx="891" cy="657" r="6.4" fill="#3f9a45"/><circle cx="535" cy="698" r="10.2" fill="#3f9a45"/><circle cx="524" cy="589" r="11.4" fill="#3f9a45"/><circle cx="953" cy="692" r="14.0" fill="#2c7a38"/><circle cx="873" cy="633" r="9.2" fill="#3f9a45"/><circle cx="521" cy="725" r="12.9" fill="#3f9a45"/><circle cx="683" cy="637" r="7.5" fill="#2c7a38"/><circle cx="891" cy="612" r="8.1" fill="#8a4a12"/><circle cx="1072" cy="692" r="14.3" fill="#3f9a45"/><circle cx="847" cy="595" r="14.3" fill="#3f9a45"/><circle cx="749" cy="746" r="8.2" fill="#3f9a45"/><circle cx="928" cy="632" r="7.9" fill="#3f9a45"/><circle cx="803" cy="713" r="7.9" fill="#2c7a38"/><circle cx="894" cy="602" r="8.9" fill="#b9701c"/><circle cx="861" cy="578" r="6.5" fill="#2c7a38"/><circle cx="911" cy="713" r="13.7" fill="#2c7a38"/><circle cx="812" cy="646" r="11.7" fill="#b9701c"/><circle cx="961" cy="685" r="13.8" fill="#3f9a45"/><circle cx="1007" cy="695" r="8.5" fill="#8a4a12"/><circle cx="1164" cy="683" r="11.4" fill="#b9701c"/><ellipse cx="632.0" cy="631.2" rx="96.0" ry="14.399999999999999" fill="#fff" opacity=".35"/><path d="M698.1818181818181 588.0 c-43.63636363636364 -72.72727272727273 43.63636363636364 -130.9090909090909 0 -218.1818181818182 c-36.36363636363637 -58.18181818181819 36.36363636363637 -101.81818181818183 0 -160.0" stroke="#fff" stroke-opacity=".22" stroke-width="23.272727272727273" stroke-linecap="round" fill="none" filter="url(#blur)"/><path d="M800.0 588.0 c-43.63636363636364 -72.72727272727273 43.63636363636364 -130.9090909090909 0 -218.1818181818182 c-36.36363636363637 -58.18181818181819 36.36363636363637 -101.81818181818183 0 -160.0" stroke="#fff" stroke-opacity=".22" stroke-width="23.272727272727273" stroke-linecap="round" fill="none" filter="url(#blur)"/><path d="M901.8181818181819 588.0 c-43.63636363636364 -72.72727272727273 43.63636363636364 -130.9090909090909 0 -218.1818181818182 c-36.36363636363637 -58.18181818181819 36.36363636363637 -101.81818181818183 0 -160.0" stroke="#fff" stroke-opacity=".22" stroke-width="23.272727272727273" stroke-linecap="round" fill="none" filter="url(#blur)"/><g transform="translate(192.0 983.9999999999999) rotate(-6)"><rect x="0" y="-4" width="448.00000000000006" height="8" rx="4" fill="#d8b36a"/><rect x="45" y="-20" width="54" height="40" rx="13" fill="#6a3411"/><rect x="51" y="-16" width="22" height="9" rx="4" fill="#fff" opacity=".18"/><rect x="108" y="-20" width="54" height="40" rx="13" fill="#6a3411"/><rect x="114" y="-16" width="22" height="9" rx="4" fill="#fff" opacity=".18"/><rect x="170" y="-20" width="54" height="40" rx="13" fill="#6a3411"/><rect x="176" y="-16" width="22" height="9" rx="4" fill="#fff" opacity=".18"/><rect x="233" y="-20" width="54" height="40" rx="13" fill="#6a3411"/><rect x="239" y="-16" width="22" height="9" rx="4" fill="#fff" opacity=".18"/><rect x="296" y="-20" width="54" height="40" rx="13" fill="#6a3411"/><rect x="302" y="-16" width="22" height="9" rx="4" fill="#fff" opacity=".18"/></g></g><rect width="1600" height="1200" fill="url(#vig)"/><rect width="1600" height="1200" fill="#d8b98a" opacity=".22"/></svg>